<svg aria-label="Logo Fabrizio Fiorucci: sloop a vela dentro una bussola" xmlns="http://www.w3.org/2000/svg" viewBox="0 0 200 200" width="200" height="200"><circle cx="100" cy="100" r="92" fill="none" stroke="#10263A" stroke-width="7"/><line x1="178.0" y1="100.0" x2="186.0" y2="100.0" stroke="#10263A" stroke-width="4" stroke-linecap="round"/><line x1="155.2" y1="155.2" x2="160.8" y2="160.8" stroke="#10263A" stroke-width="4" stroke-linecap="round"/><line x1="100.0" y1="178.0" x2="100.0" y2="186.0" stroke="#10263A" stroke-width="4" stroke-linecap="round"/><line x1="44.8" y1="155.2" x2="39.2" y2="160.8" stroke="#10263A" stroke-width="4" stroke-linecap="round"/><line x1="22.0" y1="100.0" x2="14.0" y2="100.0" stroke="#10263A" stroke-width="4" stroke-linecap="round"/><line x1="44.8" y1="44.8" x2="39.2" y2="39.2" stroke="#10263A" stroke-width="4" stroke-linecap="round"/><line x1="155.2" y1="44.8" x2="160.8" y2="39.2" stroke="#10263A" stroke-width="4" stroke-linecap="round"/><path d="M100 16 L109 34 L91 34 Z" fill="#A8432A"/><path d="M97 42 L97 132 L46 132 Q66 92 97 42 Z" fill="#10263A"/><path d="M104 54 L104 132 L148 132 Q128 96 104 54 Z" fill="#A8432A"/><path d="M44 140 L156 140 Q148 156 126 158 L74 158 Q52 156 44 140 Z" fill="#10263A"/><path d="M50 173 Q62.5 165 75 173 T100 173 T125 173 T150 173" fill="none" stroke="#1F6F78" stroke-width="6" stroke-linecap="round"/></svg>